<svg xmlns="http://www.w3.org/2000/svg" width="400" height="400" viewBox="0 0 400 400" fill="none">
  <defs>
    <clipPath id="head"><circle cx="200" cy="140" r="58"/></clipPath>
    <clipPath id="body"><path d="M125 310 Q125 235 200 218 Q275 235 275 310 L125 310Z"/></clipPath>
  </defs>
  <!-- Head dots -->
  <g clip-path="url(#head)" opacity="0.55">
    <g fill="#b2f2bb">
      <!-- row-generated 4px dots at 8px grid -->
      <rect x="144" y="84" width="4" height="4" rx="1"/><rect x="152" y="84" width="4" height="4" rx="1"/><rect x="160" y="84" width="4" height="4" rx="1"/><rect x="168" y="84" width="4" height="4" rx="1"/><rect x="176" y="84" width="4" height="4" rx="1"/><rect x="184" y="84" width="4" height="4" rx="1"/><rect x="192" y="84" width="4" height="4" rx="1"/><rect x="200" y="84" width="4" height="4" rx="1"/><rect x="208" y="84" width="4" height="4" rx="1"/><rect x="216" y="84" width="4" height="4" rx="1"/><rect x="224" y="84" width="4" height="4" rx="1"/><rect x="232" y="84" width="4" height="4" rx="1"/><rect x="240" y="84" width="4" height="4" rx="1"/><rect x="248" y="84" width="4" height="4" rx="1"/>
      <rect x="144" y="92" width="4" height="4" rx="1"/><rect x="152" y="92" width="4" height="4" rx="1"/><rect x="160" y="92" width="4" height="4" rx="1"/><rect x="168" y="92" width="4" height="4" rx="1"/><rect x="176" y="92" width="4" height="4" rx="1"/><rect x="184" y="92" width="4" height="4" rx="1"/><rect x="192" y="92" width="4" height="4" rx="1"/><rect x="200" y="92" width="4" height="4" rx="1"/><rect x="208" y="92" width="4" height="4" rx="1"/><rect x="216" y="92" width="4" height="4" rx="1"/><rect x="224" y="92" width="4" height="4" rx="1"/><rect x="232" y="92" width="4" height="4" rx="1"/><rect x="240" y="92" width="4" height="4" rx="1"/><rect x="248" y="92" width="4" height="4" rx="1"/>
      <rect x="144" y="100" width="4" height="4" rx="1"/><rect x="152" y="100" width="4" height="4" rx="1"/><rect x="160" y="100" width="4" height="4" rx="1"/><rect x="168" y="100" width="4" height="4" rx="1"/><rect x="176" y="100" width="4" height="4" rx="1"/><rect x="184" y="100" width="4" height="4" rx="1"/><rect x="192" y="100" width="4" height="4" rx="1"/><rect x="200" y="100" width="4" height="4" rx="1"/><rect x="208" y="100" width="4" height="4" rx="1"/><rect x="216" y="100" width="4" height="4" rx="1"/><rect x="224" y="100" width="4" height="4" rx="1"/><rect x="232" y="100" width="4" height="4" rx="1"/><rect x="240" y="100" width="4" height="4" rx="1"/><rect x="248" y="100" width="4" height="4" rx="1"/>
      <rect x="144" y="108" width="4" height="4" rx="1"/><rect x="152" y="108" width="4" height="4" rx="1"/><rect x="160" y="108" width="4" height="4" rx="1"/><rect x="168" y="108" width="4" height="4" rx="1"/><rect x="176" y="108" width="4" height="4" rx="1"/><rect x="184" y="108" width="4" height="4" rx="1"/><rect x="192" y="108" width="4" height="4" rx="1"/><rect x="200" y="108" width="4" height="4" rx="1"/><rect x="208" y="108" width="4" height="4" rx="1"/><rect x="216" y="108" width="4" height="4" rx="1"/><rect x="224" y="108" width="4" height="4" rx="1"/><rect x="232" y="108" width="4" height="4" rx="1"/><rect x="240" y="108" width="4" height="4" rx="1"/><rect x="248" y="108" width="4" height="4" rx="1"/>
      <rect x="144" y="116" width="4" height="4" rx="1"/><rect x="152" y="116" width="4" height="4" rx="1"/><rect x="160" y="116" width="4" height="4" rx="1"/><rect x="168" y="116" width="4" height="4" rx="1"/><rect x="176" y="116" width="4" height="4" rx="1"/><rect x="184" y="116" width="4" height="4" rx="1"/><rect x="192" y="116" width="4" height="4" rx="1"/><rect x="200" y="116" width="4" height="4" rx="1"/><rect x="208" y="116" width="4" height="4" rx="1"/><rect x="216" y="116" width="4" height="4" rx="1"/><rect x="224" y="116" width="4" height="4" rx="1"/><rect x="232" y="116" width="4" height="4" rx="1"/><rect x="240" y="116" width="4" height="4" rx="1"/><rect x="248" y="116" width="4" height="4" rx="1"/>
      <rect x="144" y="124" width="4" height="4" rx="1"/><rect x="152" y="124" width="4" height="4" rx="1"/><rect x="160" y="124" width="4" height="4" rx="1"/><rect x="168" y="124" width="4" height="4" rx="1"/><rect x="176" y="124" width="4" height="4" rx="1"/><rect x="184" y="124" width="4" height="4" rx="1"/><rect x="192" y="124" width="4" height="4" rx="1"/><rect x="200" y="124" width="4" height="4" rx="1"/><rect x="208" y="124" width="4" height="4" rx="1"/><rect x="216" y="124" width="4" height="4" rx="1"/><rect x="224" y="124" width="4" height="4" rx="1"/><rect x="232" y="124" width="4" height="4" rx="1"/><rect x="240" y="124" width="4" height="4" rx="1"/><rect x="248" y="124" width="4" height="4" rx="1"/>
      <rect x="144" y="132" width="4" height="4" rx="1"/><rect x="152" y="132" width="4" height="4" rx="1"/><rect x="160" y="132" width="4" height="4" rx="1"/><rect x="168" y="132" width="4" height="4" rx="1"/><rect x="176" y="132" width="4" height="4" rx="1"/><rect x="184" y="132" width="4" height="4" rx="1"/><rect x="192" y="132" width="4" height="4" rx="1"/><rect x="200" y="132" width="4" height="4" rx="1"/><rect x="208" y="132" width="4" height="4" rx="1"/><rect x="216" y="132" width="4" height="4" rx="1"/><rect x="224" y="132" width="4" height="4" rx="1"/><rect x="232" y="132" width="4" height="4" rx="1"/><rect x="240" y="132" width="4" height="4" rx="1"/><rect x="248" y="132" width="4" height="4" rx="1"/>
      <rect x="144" y="140" width="4" height="4" rx="1"/><rect x="152" y="140" width="4" height="4" rx="1"/><rect x="160" y="140" width="4" height="4" rx="1"/><rect x="168" y="140" width="4" height="4" rx="1"/><rect x="176" y="140" width="4" height="4" rx="1"/><rect x="184" y="140" width="4" height="4" rx="1"/><rect x="192" y="140" width="4" height="4" rx="1"/><rect x="200" y="140" width="4" height="4" rx="1"/><rect x="208" y="140" width="4" height="4" rx="1"/><rect x="216" y="140" width="4" height="4" rx="1"/><rect x="224" y="140" width="4" height="4" rx="1"/><rect x="232" y="140" width="4" height="4" rx="1"/><rect x="240" y="140" width="4" height="4" rx="1"/><rect x="248" y="140" width="4" height="4" rx="1"/>
      <rect x="144" y="148" width="4" height="4" rx="1"/><rect x="152" y="148" width="4" height="4" rx="1"/><rect x="160" y="148" width="4" height="4" rx="1"/><rect x="168" y="148" width="4" height="4" rx="1"/><rect x="176" y="148" width="4" height="4" rx="1"/><rect x="184" y="148" width="4" height="4" rx="1"/><rect x="192" y="148" width="4" height="4" rx="1"/><rect x="200" y="148" width="4" height="4" rx="1"/><rect x="208" y="148" width="4" height="4" rx="1"/><rect x="216" y="148" width="4" height="4" rx="1"/><rect x="224" y="148" width="4" height="4" rx="1"/><rect x="232" y="148" width="4" height="4" rx="1"/><rect x="240" y="148" width="4" height="4" rx="1"/><rect x="248" y="148" width="4" height="4" rx="1"/>
      <rect x="144" y="156" width="4" height="4" rx="1"/><rect x="152" y="156" width="4" height="4" rx="1"/><rect x="160" y="156" width="4" height="4" rx="1"/><rect x="168" y="156" width="4" height="4" rx="1"/><rect x="176" y="156" width="4" height="4" rx="1"/><rect x="184" y="156" width="4" height="4" rx="1"/><rect x="192" y="156" width="4" height="4" rx="1"/><rect x="200" y="156" width="4" height="4" rx="1"/><rect x="208" y="156" width="4" height="4" rx="1"/><rect x="216" y="156" width="4" height="4" rx="1"/><rect x="224" y="156" width="4" height="4" rx="1"/><rect x="232" y="156" width="4" height="4" rx="1"/><rect x="240" y="156" width="4" height="4" rx="1"/><rect x="248" y="156" width="4" height="4" rx="1"/>
      <rect x="144" y="164" width="4" height="4" rx="1"/><rect x="152" y="164" width="4" height="4" rx="1"/><rect x="160" y="164" width="4" height="4" rx="1"/><rect x="168" y="164" width="4" height="4" rx="1"/><rect x="176" y="164" width="4" height="4" rx="1"/><rect x="184" y="164" width="4" height="4" rx="1"/><rect x="192" y="164" width="4" height="4" rx="1"/><rect x="200" y="164" width="4" height="4" rx="1"/><rect x="208" y="164" width="4" height="4" rx="1"/><rect x="216" y="164" width="4" height="4" rx="1"/><rect x="224" y="164" width="4" height="4" rx="1"/><rect x="232" y="164" width="4" height="4" rx="1"/><rect x="240" y="164" width="4" height="4" rx="1"/><rect x="248" y="164" width="4" height="4" rx="1"/>
      <rect x="144" y="172" width="4" height="4" rx="1"/><rect x="152" y="172" width="4" height="4" rx="1"/><rect x="160" y="172" width="4" height="4" rx="1"/><rect x="168" y="172" width="4" height="4" rx="1"/><rect x="176" y="172" width="4" height="4" rx="1"/><rect x="184" y="172" width="4" height="4" rx="1"/><rect x="192" y="172" width="4" height="4" rx="1"/><rect x="200" y="172" width="4" height="4" rx="1"/><rect x="208" y="172" width="4" height="4" rx="1"/><rect x="216" y="172" width="4" height="4" rx="1"/><rect x="224" y="172" width="4" height="4" rx="1"/><rect x="232" y="172" width="4" height="4" rx="1"/><rect x="240" y="172" width="4" height="4" rx="1"/><rect x="248" y="172" width="4" height="4" rx="1"/>
      <rect x="144" y="180" width="4" height="4" rx="1"/><rect x="152" y="180" width="4" height="4" rx="1"/><rect x="160" y="180" width="4" height="4" rx="1"/><rect x="168" y="180" width="4" height="4" rx="1"/><rect x="176" y="180" width="4" height="4" rx="1"/><rect x="184" y="180" width="4" height="4" rx="1"/><rect x="192" y="180" width="4" height="4" rx="1"/><rect x="200" y="180" width="4" height="4" rx="1"/><rect x="208" y="180" width="4" height="4" rx="1"/><rect x="216" y="180" width="4" height="4" rx="1"/><rect x="224" y="180" width="4" height="4" rx="1"/><rect x="232" y="180" width="4" height="4" rx="1"/><rect x="240" y="180" width="4" height="4" rx="1"/><rect x="248" y="180" width="4" height="4" rx="1"/>
      <rect x="144" y="188" width="4" height="4" rx="1"/><rect x="152" y="188" width="4" height="4" rx="1"/><rect x="160" y="188" width="4" height="4" rx="1"/><rect x="168" y="188" width="4" height="4" rx="1"/><rect x="176" y="188" width="4" height="4" rx="1"/><rect x="184" y="188" width="4" height="4" rx="1"/><rect x="192" y="188" width="4" height="4" rx="1"/><rect x="200" y="188" width="4" height="4" rx="1"/><rect x="208" y="188" width="4" height="4" rx="1"/><rect x="216" y="188" width="4" height="4" rx="1"/><rect x="224" y="188" width="4" height="4" rx="1"/><rect x="232" y="188" width="4" height="4" rx="1"/><rect x="240" y="188" width="4" height="4" rx="1"/><rect x="248" y="188" width="4" height="4" rx="1"/>
    </g>
  </g>
  <!-- Body dots -->
  <g clip-path="url(#body)" opacity="0.45">
    <g fill="#b2f2bb">
      <rect x="128" y="220" width="4" height="4" rx="1"/><rect x="136" y="220" width="4" height="4" rx="1"/><rect x="144" y="220" width="4" height="4" rx="1"/><rect x="152" y="220" width="4" height="4" rx="1"/><rect x="160" y="220" width="4" height="4" rx="1"/><rect x="168" y="220" width="4" height="4" rx="1"/><rect x="176" y="220" width="4" height="4" rx="1"/><rect x="184" y="220" width="4" height="4" rx="1"/><rect x="192" y="220" width="4" height="4" rx="1"/><rect x="200" y="220" width="4" height="4" rx="1"/><rect x="208" y="220" width="4" height="4" rx="1"/><rect x="216" y="220" width="4" height="4" rx="1"/><rect x="224" y="220" width="4" height="4" rx="1"/><rect x="232" y="220" width="4" height="4" rx="1"/><rect x="240" y="220" width="4" height="4" rx="1"/><rect x="248" y="220" width="4" height="4" rx="1"/><rect x="256" y="220" width="4" height="4" rx="1"/><rect x="264" y="220" width="4" height="4" rx="1"/>
      <rect x="128" y="228" width="4" height="4" rx="1"/><rect x="136" y="228" width="4" height="4" rx="1"/><rect x="144" y="228" width="4" height="4" rx="1"/><rect x="152" y="228" width="4" height="4" rx="1"/><rect x="160" y="228" width="4" height="4" rx="1"/><rect x="168" y="228" width="4" height="4" rx="1"/><rect x="176" y="228" width="4" height="4" rx="1"/><rect x="184" y="228" width="4" height="4" rx="1"/><rect x="192" y="228" width="4" height="4" rx="1"/><rect x="200" y="228" width="4" height="4" rx="1"/><rect x="208" y="228" width="4" height="4" rx="1"/><rect x="216" y="228" width="4" height="4" rx="1"/><rect x="224" y="228" width="4" height="4" rx="1"/><rect x="232" y="228" width="4" height="4" rx="1"/><rect x="240" y="228" width="4" height="4" rx="1"/><rect x="248" y="228" width="4" height="4" rx="1"/><rect x="256" y="228" width="4" height="4" rx="1"/><rect x="264" y="228" width="4" height="4" rx="1"/>
      <rect x="128" y="236" width="4" height="4" rx="1"/><rect x="136" y="236" width="4" height="4" rx="1"/><rect x="144" y="236" width="4" height="4" rx="1"/><rect x="152" y="236" width="4" height="4" rx="1"/><rect x="160" y="236" width="4" height="4" rx="1"/><rect x="168" y="236" width="4" height="4" rx="1"/><rect x="176" y="236" width="4" height="4" rx="1"/><rect x="184" y="236" width="4" height="4" rx="1"/><rect x="192" y="236" width="4" height="4" rx="1"/><rect x="200" y="236" width="4" height="4" rx="1"/><rect x="208" y="236" width="4" height="4" rx="1"/><rect x="216" y="236" width="4" height="4" rx="1"/><rect x="224" y="236" width="4" height="4" rx="1"/><rect x="232" y="236" width="4" height="4" rx="1"/><rect x="240" y="236" width="4" height="4" rx="1"/><rect x="248" y="236" width="4" height="4" rx="1"/><rect x="256" y="236" width="4" height="4" rx="1"/><rect x="264" y="236" width="4" height="4" rx="1"/>
      <rect x="128" y="244" width="4" height="4" rx="1"/><rect x="136" y="244" width="4" height="4" rx="1"/><rect x="144" y="244" width="4" height="4" rx="1"/><rect x="152" y="244" width="4" height="4" rx="1"/><rect x="160" y="244" width="4" height="4" rx="1"/><rect x="168" y="244" width="4" height="4" rx="1"/><rect x="176" y="244" width="4" height="4" rx="1"/><rect x="184" y="244" width="4" height="4" rx="1"/><rect x="192" y="244" width="4" height="4" rx="1"/><rect x="200" y="244" width="4" height="4" rx="1"/><rect x="208" y="244" width="4" height="4" rx="1"/><rect x="216" y="244" width="4" height="4" rx="1"/><rect x="224" y="244" width="4" height="4" rx="1"/><rect x="232" y="244" width="4" height="4" rx="1"/><rect x="240" y="244" width="4" height="4" rx="1"/><rect x="248" y="244" width="4" height="4" rx="1"/><rect x="256" y="244" width="4" height="4" rx="1"/><rect x="264" y="244" width="4" height="4" rx="1"/>
      <rect x="128" y="252" width="4" height="4" rx="1"/><rect x="136" y="252" width="4" height="4" rx="1"/><rect x="144" y="252" width="4" height="4" rx="1"/><rect x="152" y="252" width="4" height="4" rx="1"/><rect x="160" y="252" width="4" height="4" rx="1"/><rect x="168" y="252" width="4" height="4" rx="1"/><rect x="176" y="252" width="4" height="4" rx="1"/><rect x="184" y="252" width="4" height="4" rx="1"/><rect x="192" y="252" width="4" height="4" rx="1"/><rect x="200" y="252" width="4" height="4" rx="1"/><rect x="208" y="252" width="4" height="4" rx="1"/><rect x="216" y="252" width="4" height="4" rx="1"/><rect x="224" y="252" width="4" height="4" rx="1"/><rect x="232" y="252" width="4" height="4" rx="1"/><rect x="240" y="252" width="4" height="4" rx="1"/><rect x="248" y="252" width="4" height="4" rx="1"/><rect x="256" y="252" width="4" height="4" rx="1"/><rect x="264" y="252" width="4" height="4" rx="1"/>
      <rect x="128" y="260" width="4" height="4" rx="1"/><rect x="136" y="260" width="4" height="4" rx="1"/><rect x="144" y="260" width="4" height="4" rx="1"/><rect x="152" y="260" width="4" height="4" rx="1"/><rect x="160" y="260" width="4" height="4" rx="1"/><rect x="168" y="260" width="4" height="4" rx="1"/><rect x="176" y="260" width="4" height="4" rx="1"/><rect x="184" y="260" width="4" height="4" rx="1"/><rect x="192" y="260" width="4" height="4" rx="1"/><rect x="200" y="260" width="4" height="4" rx="1"/><rect x="208" y="260" width="4" height="4" rx="1"/><rect x="216" y="260" width="4" height="4" rx="1"/><rect x="224" y="260" width="4" height="4" rx="1"/><rect x="232" y="260" width="4" height="4" rx="1"/><rect x="240" y="260" width="4" height="4" rx="1"/><rect x="248" y="260" width="4" height="4" rx="1"/><rect x="256" y="260" width="4" height="4" rx="1"/><rect x="264" y="260" width="4" height="4" rx="1"/>
      <rect x="128" y="268" width="4" height="4" rx="1"/><rect x="136" y="268" width="4" height="4" rx="1"/><rect x="144" y="268" width="4" height="4" rx="1"/><rect x="152" y="268" width="4" height="4" rx="1"/><rect x="160" y="268" width="4" height="4" rx="1"/><rect x="168" y="268" width="4" height="4" rx="1"/><rect x="176" y="268" width="4" height="4" rx="1"/><rect x="184" y="268" width="4" height="4" rx="1"/><rect x="192" y="268" width="4" height="4" rx="1"/><rect x="200" y="268" width="4" height="4" rx="1"/><rect x="208" y="268" width="4" height="4" rx="1"/><rect x="216" y="268" width="4" height="4" rx="1"/><rect x="224" y="268" width="4" height="4" rx="1"/><rect x="232" y="268" width="4" height="4" rx="1"/><rect x="240" y="268" width="4" height="4" rx="1"/><rect x="248" y="268" width="4" height="4" rx="1"/><rect x="256" y="268" width="4" height="4" rx="1"/><rect x="264" y="268" width="4" height="4" rx="1"/>
      <rect x="128" y="276" width="4" height="4" rx="1"/><rect x="136" y="276" width="4" height="4" rx="1"/><rect x="144" y="276" width="4" height="4" rx="1"/><rect x="152" y="276" width="4" height="4" rx="1"/><rect x="160" y="276" width="4" height="4" rx="1"/><rect x="168" y="276" width="4" height="4" rx="1"/><rect x="176" y="276" width="4" height="4" rx="1"/><rect x="184" y="276" width="4" height="4" rx="1"/><rect x="192" y="276" width="4" height="4" rx="1"/><rect x="200" y="276" width="4" height="4" rx="1"/><rect x="208" y="276" width="4" height="4" rx="1"/><rect x="216" y="276" width="4" height="4" rx="1"/><rect x="224" y="276" width="4" height="4" rx="1"/><rect x="232" y="276" width="4" height="4" rx="1"/><rect x="240" y="276" width="4" height="4" rx="1"/><rect x="248" y="276" width="4" height="4" rx="1"/><rect x="256" y="276" width="4" height="4" rx="1"/><rect x="264" y="276" width="4" height="4" rx="1"/>
      <rect x="128" y="284" width="4" height="4" rx="1"/><rect x="136" y="284" width="4" height="4" rx="1"/><rect x="144" y="284" width="4" height="4" rx="1"/><rect x="152" y="284" width="4" height="4" rx="1"/><rect x="160" y="284" width="4" height="4" rx="1"/><rect x="168" y="284" width="4" height="4" rx="1"/><rect x="176" y="284" width="4" height="4" rx="1"/><rect x="184" y="284" width="4" height="4" rx="1"/><rect x="192" y="284" width="4" height="4" rx="1"/><rect x="200" y="284" width="4" height="4" rx="1"/><rect x="208" y="284" width="4" height="4" rx="1"/><rect x="216" y="284" width="4" height="4" rx="1"/><rect x="224" y="284" width="4" height="4" rx="1"/><rect x="232" y="284" width="4" height="4" rx="1"/><rect x="240" y="284" width="4" height="4" rx="1"/><rect x="248" y="284" width="4" height="4" rx="1"/><rect x="256" y="284" width="4" height="4" rx="1"/><rect x="264" y="284" width="4" height="4" rx="1"/>
      <rect x="128" y="292" width="4" height="4" rx="1"/><rect x="136" y="292" width="4" height="4" rx="1"/><rect x="144" y="292" width="4" height="4" rx="1"/><rect x="152" y="292" width="4" height="4" rx="1"/><rect x="160" y="292" width="4" height="4" rx="1"/><rect x="168" y="292" width="4" height="4" rx="1"/><rect x="176" y="292" width="4" height="4" rx="1"/><rect x="184" y="292" width="4" height="4" rx="1"/><rect x="192" y="292" width="4" height="4" rx="1"/><rect x="200" y="292" width="4" height="4" rx="1"/><rect x="208" y="292" width="4" height="4" rx="1"/><rect x="216" y="292" width="4" height="4" rx="1"/><rect x="224" y="292" width="4" height="4" rx="1"/><rect x="232" y="292" width="4" height="4" rx="1"/><rect x="240" y="292" width="4" height="4" rx="1"/><rect x="248" y="292" width="4" height="4" rx="1"/><rect x="256" y="292" width="4" height="4" rx="1"/><rect x="264" y="292" width="4" height="4" rx="1"/>
      <rect x="128" y="300" width="4" height="4" rx="1"/><rect x="136" y="300" width="4" height="4" rx="1"/><rect x="144" y="300" width="4" height="4" rx="1"/><rect x="152" y="300" width="4" height="4" rx="1"/><rect x="160" y="300" width="4" height="4" rx="1"/><rect x="168" y="300" width="4" height="4" rx="1"/><rect x="176" y="300" width="4" height="4" rx="1"/><rect x="184" y="300" width="4" height="4" rx="1"/><rect x="192" y="300" width="4" height="4" rx="1"/><rect x="200" y="300" width="4" height="4" rx="1"/><rect x="208" y="300" width="4" height="4" rx="1"/><rect x="216" y="300" width="4" height="4" rx="1"/><rect x="224" y="300" width="4" height="4" rx="1"/><rect x="232" y="300" width="4" height="4" rx="1"/><rect x="240" y="300" width="4" height="4" rx="1"/><rect x="248" y="300" width="4" height="4" rx="1"/><rect x="256" y="300" width="4" height="4" rx="1"/><rect x="264" y="300" width="4" height="4" rx="1"/>
    </g>
  </g>
  <!-- Corner brackets -->
  <g stroke="#b2f2bb" stroke-width="1" opacity="0.25">
    <line x1="40" y1="40" x2="80" y2="40"/><line x1="40" y1="40" x2="40" y2="80"/>
    <line x1="360" y1="40" x2="320" y2="40"/><line x1="360" y1="40" x2="360" y2="80"/>
    <line x1="40" y1="360" x2="80" y2="360"/><line x1="40" y1="360" x2="40" y2="320"/>
    <line x1="360" y1="360" x2="320" y2="360"/><line x1="360" y1="360" x2="360" y2="320"/>
  </g>
</svg>
